<svg width="94" height="71" viewBox="0 0 94 71" fill="none" xmlns="http://www.w3.org/2000/svg">
<path d="M60.2416 14.7012C63.7505 14.7012 66.595 11.8567 66.595 8.34782C66.595 4.83892 63.7505 1.99438 60.2416 1.99438C56.7327 1.99438 53.8882 4.83892 53.8882 8.34782C53.8882 11.8567 56.7327 14.7012 60.2416 14.7012Z" fill="#EDCB43"/>
<path d="M34.5033 12.7068C38.0122 12.7068 40.8568 9.86233 40.8568 6.35343C40.8568 2.84453 38.0122 0 34.5033 0C30.9944 0 28.1499 2.84453 28.1499 6.35343C28.1499 9.86233 30.9944 12.7068 34.5033 12.7068Z" fill="#FF0666"/>
<path d="M57.7837 44.706C57.7837 44.706 35.1989 41.4133 35.4771 20.5444C35.4771 19.8024 35.3844 19.0604 35.1525 18.3184C34.5496 16.4634 32.9265 13.5417 28.8454 14.0055C22.9558 14.7011 22.2138 23.4197 23.2804 28.6601C24.347 33.9005 35.4307 57.1809 57.7837 44.706Z" fill="#FF0666"/>
<path d="M35.6626 45.5873C35.6626 45.5873 58.3402 42.8047 58.3402 22.8633C58.3402 21.6112 58.6184 20.3591 59.2677 19.2924C60.1488 17.7157 61.8647 16.1389 65.0182 16.5563C70.9543 17.2519 71.6035 25.6922 70.4905 30.7008C69.3775 35.7093 57.3199 57.6449 35.6626 45.5873Z" fill="#EDCB43"/>
<path d="M5.56504 57.8302C5.24042 56.6245 4.73029 55.7433 3.24628 55.7433C2.04052 55.7433 1.48401 56.6245 1.48401 57.5983C1.48401 58.8041 2.17964 59.3142 3.47815 60.1026C4.77666 60.8446 6.16793 61.6794 6.16793 63.4416C6.16793 65.2039 4.68391 66.5488 2.73615 66.5488C1.85502 66.5488 0.927509 66.2705 0.371004 66.085C0.278254 65.6676 0.0463754 64.1373 0 63.8126L0.231877 63.7663C0.510129 64.8329 1.29851 66.1778 2.96802 66.1778C4.31291 66.1778 4.91579 65.1575 4.91579 64.0445C4.91579 62.8388 4.12741 62.0967 2.96802 61.4011C1.66951 60.6127 0.371004 59.8243 0.371004 58.1548C0.371004 56.5781 1.66951 55.3723 3.5709 55.3723C4.59116 55.3723 5.24042 55.5578 5.56504 55.6042C5.61142 56.2071 5.70417 56.9955 5.8433 57.7375L5.56504 57.8302Z" fill="#FFFFF8"/>
<path d="M12.1502 66.5024C11.8719 66.5024 11.6401 66.4096 11.3618 66.1778C11.1763 65.9923 11.0836 65.8068 10.9908 65.4358C10.3879 65.8531 9.55317 66.5024 9.18216 66.5024C8.06915 66.5024 7.32715 65.5749 7.32715 64.6474C7.32715 63.9054 7.69815 63.488 8.48653 63.2097C9.36766 62.8851 10.527 62.5605 10.9908 62.2359V61.6793C10.9908 60.52 10.3879 59.8243 9.59954 59.8243C9.32129 59.8243 9.04303 59.9171 8.90391 60.149C8.71841 60.3345 8.57928 60.7518 8.48653 61.2156C8.44016 61.4475 8.25465 61.4938 8.1619 61.4938C7.88365 61.4938 7.55903 61.2156 7.55903 60.891C7.55903 60.7518 7.69815 60.6127 7.9764 60.3808C8.48653 60.0098 9.59954 59.4069 10.2488 59.2678C10.7125 59.2678 11.1763 59.407 11.5009 59.6852C12.0574 60.1953 12.2429 60.7518 12.2429 61.7257V64.6474C12.2429 65.4357 12.5212 65.6676 12.7994 65.6676C12.9849 65.6676 13.1241 65.6212 13.2632 65.5285L13.3559 65.7604L12.1502 66.5024ZM10.9908 62.5605C10.7125 62.746 9.97054 63.0242 9.55316 63.2097C8.99666 63.488 8.62566 63.7662 8.62566 64.3691C8.62566 65.2039 9.22854 65.6213 9.78504 65.6213C10.156 65.6213 10.6198 65.4821 10.9908 65.1111C10.9908 64.3227 10.9908 63.4416 10.9908 62.5605Z" fill="#FFFFF8"/>
<path d="M18.2255 66.3168V66.085C19.1994 65.9458 19.2458 65.8531 19.2458 64.5546V61.9576C19.2458 60.9373 18.8748 60.0562 17.8545 60.0562C17.2052 60.0562 16.6024 60.3808 16.185 60.7982V64.6473C16.185 65.8531 16.2777 65.8995 17.2052 66.085V66.3168H13.9126V66.085C14.9329 65.9458 14.9792 65.8067 14.9792 64.6473V61.3083C14.9792 60.3344 14.9329 60.2417 14.1445 60.0098V59.8243C14.8401 59.7315 15.5821 59.4533 16.2314 59.1287C16.2314 59.4533 16.185 59.8707 16.185 60.4272C16.5096 60.1953 16.8806 59.917 17.298 59.6388C17.7618 59.3605 18.0864 59.175 18.5501 59.175C19.8023 59.175 20.5443 60.1489 20.5443 61.6329V64.6473C20.5443 65.8067 20.637 65.8995 21.4718 66.0386V66.2705H18.2255V66.3168Z" fill="#FFFFF8"/>
<path d="M24.3466 64.23C23.8829 64.601 23.8365 64.8792 23.8365 65.0647C23.8365 65.4357 24.1611 65.7604 24.764 65.7604C25.2741 65.7604 25.9234 65.7604 26.4799 65.7604C27.7784 65.7604 28.845 66.3169 28.845 67.7545C28.845 69.3776 27.0364 70.9544 24.9959 70.9544C23.0945 70.9544 22.167 69.8414 22.167 68.9139C22.167 68.5893 22.2597 68.2646 22.4916 68.0791C22.7699 67.8009 23.4191 67.2444 23.9293 66.8734C23.3264 66.6879 22.909 66.3632 22.7235 65.9922C22.5844 65.7604 22.538 65.4821 22.538 65.343C22.9554 65.1111 23.7438 64.5546 24.0684 64.1836L24.3466 64.23ZM25.1814 64.4155C23.5583 64.4155 22.4916 63.2561 22.4916 61.9576C22.4916 60.2417 23.9293 59.2214 25.2741 59.2214C25.7843 59.2214 26.3408 59.4069 26.8045 59.6388C27.361 59.6388 28.3813 59.4533 28.7987 59.2678L28.8914 59.3606C28.7523 59.6388 28.5204 60.0098 28.3349 60.1953C28.0567 60.1953 27.5929 60.1953 27.3147 60.1953C27.6393 60.5199 27.8712 61.1692 27.8712 61.7257C27.9175 63.5343 26.3872 64.4155 25.1814 64.4155ZM25.5988 66.8734C24.6249 66.8734 24.393 66.9197 24.2539 67.0125C23.5583 67.4762 23.28 67.94 23.28 68.5429C23.28 69.5168 24.3466 70.3515 25.6915 70.3515C27.5465 70.3515 27.9175 69.3776 27.9175 68.4501C27.9175 67.8009 27.5929 67.3371 27.0364 67.1052C26.6654 66.8734 26.2016 66.8734 25.5988 66.8734ZM25.0886 59.5461C24.3466 59.5461 23.7901 60.2417 23.7901 61.6329C23.7901 63.0706 24.393 64.1372 25.3669 64.0908C26.1553 64.0445 26.619 63.4416 26.619 62.004C26.619 60.6127 26.0161 59.5461 25.0886 59.5461Z" fill="#FFFFF8"/>
<path d="M34.1785 66.5024C33.9003 66.5024 33.6684 66.4096 33.3901 66.1778C33.2046 65.9923 33.1119 65.8068 33.0191 65.4358C32.4162 65.8531 31.5815 66.5024 31.2105 66.5024C30.0975 66.5024 29.3555 65.5749 29.3555 64.6474C29.3555 63.9054 29.7265 63.488 30.5149 63.2097C31.396 62.8851 32.5554 62.5605 33.0191 62.2359V61.6793C33.0191 60.52 32.4162 59.8243 31.6279 59.8243C31.3496 59.8243 31.0714 59.9171 30.9322 60.149C30.7467 60.3345 30.6076 60.7518 30.5149 61.2156C30.4685 61.4475 30.283 61.4938 30.1902 61.4938C29.912 61.4938 29.5873 61.2156 29.5873 60.891C29.5873 60.7518 29.7265 60.6127 30.0047 60.3808C30.5149 60.0098 31.6279 59.4069 32.2771 59.2678C32.7409 59.2678 33.2046 59.407 33.5293 59.6852C34.0858 60.1953 34.2713 60.7518 34.2713 61.7257V64.6474C34.2713 65.4357 34.5495 65.6676 34.8278 65.6676C35.0133 65.6676 35.1524 65.6212 35.2915 65.5285L35.3843 65.7604L34.1785 66.5024ZM33.0655 62.5605C32.7872 62.746 32.0452 63.0242 31.6279 63.2097C31.0714 63.488 30.7004 63.7662 30.7004 64.3691C30.7004 65.2039 31.3032 65.6213 31.8597 65.6213C32.2307 65.6213 32.6945 65.4821 33.0655 65.1111C33.0191 64.3227 33.0655 63.4416 33.0655 62.5605Z" fill="#FFFFF8"/>
<path d="M44.2885 66.3168V66.085C45.3088 65.9458 45.3088 65.8067 45.3088 64.5082V61.9112C45.3088 60.8446 44.9841 60.0562 43.9639 60.0562C43.4074 60.0562 42.8972 60.288 42.3407 60.7982C42.3871 60.9837 42.3871 61.1692 42.3871 61.5402V64.7401C42.3871 65.8531 42.4799 65.9458 43.361 66.085V66.3168H40.2075V66.085C41.135 65.9458 41.1813 65.8067 41.1813 64.7401V61.9112C41.1813 60.7054 40.8103 60.0562 39.7901 60.0562C39.2336 60.0562 38.6771 60.3808 38.2133 60.7982V64.6937C38.2133 65.8067 38.2597 65.9458 39.2336 66.085V66.3168H35.9873V66.085C37.0076 65.9458 37.0539 65.8067 37.0539 64.6473V61.3083C37.0539 60.2417 36.9612 60.1953 36.2192 59.9634V59.8243C36.9612 59.6852 37.5641 59.4997 38.3061 59.1287C38.2597 59.6388 38.2597 60.1489 38.2597 60.4272C38.5843 60.1953 38.9089 59.9634 39.28 59.6852C39.7901 59.3605 40.1611 59.2214 40.5785 59.2214C41.3205 59.2214 41.9234 59.5924 42.248 60.5199C42.6654 60.1953 43.1291 59.8243 43.5465 59.5924C43.9639 59.3605 44.2421 59.2214 44.6595 59.2214C45.8189 59.2214 46.5145 60.1489 46.5145 61.6329V64.6473C46.5145 65.8995 46.6073 65.9458 47.442 66.085V66.3168H44.2885Z" fill="#FFFFF8"/>
<path d="M57.0416 57.8302C56.717 56.6245 56.2069 55.7433 54.7228 55.7433C53.5171 55.7433 52.9606 56.6245 52.9606 57.5983C52.9606 58.8041 53.6562 59.3142 54.9547 60.1026C56.2532 60.8446 57.6445 61.6794 57.6445 63.4416C57.6445 65.2039 56.1605 66.5488 54.2127 66.5488C53.3316 66.5488 52.4041 66.2705 51.8476 66.085C51.7548 65.6676 51.5229 64.1373 51.4766 63.8126L51.7084 63.7663C51.9867 64.8329 52.7751 66.1778 54.4446 66.1778C55.7895 66.1778 56.3924 65.1575 56.3924 64.0445C56.3924 62.8388 55.604 62.0967 54.4446 61.4011C53.1461 60.6127 51.8476 59.8243 51.8476 58.1548C51.8476 56.5781 53.1461 55.3723 55.0475 55.3723C56.0677 55.3723 56.717 55.5578 57.0416 55.6042C57.088 56.2071 57.1807 56.9955 57.3199 57.7375L57.0416 57.8302Z" fill="#FFFFF8"/>
<path d="M63.6272 66.5024C63.349 66.5024 63.1171 66.4096 62.8389 66.1778C62.6534 65.9923 62.5606 65.8068 62.4679 65.4358C61.865 65.8531 61.0302 66.5024 60.6592 66.5024C59.5462 66.5024 58.8042 65.5749 58.8042 64.6474C58.8042 63.9054 59.1752 63.488 59.9636 63.2097C60.8447 62.8851 62.0041 62.5605 62.4679 62.2359V61.6793C62.4679 60.52 61.865 59.8243 61.0766 59.8243C60.7983 59.8243 60.5201 59.9171 60.381 60.149C60.1955 60.3345 60.0563 60.7518 59.9636 61.2156C59.9172 61.4475 59.7317 61.4938 59.639 61.4938C59.3607 61.4938 59.0361 61.2156 59.0361 60.891C59.0361 60.7518 59.1752 60.6127 59.4535 60.3808C59.9636 60.0098 61.0766 59.4069 61.7258 59.2678C62.1896 59.2678 62.6534 59.407 62.978 59.6852C63.5345 60.1953 63.72 60.7518 63.72 61.7257V64.6474C63.72 65.4357 63.9982 65.6676 64.2765 65.6676C64.462 65.6676 64.6011 65.6212 64.7402 65.5285L64.833 65.7604L63.6272 66.5024ZM62.5142 62.5605C62.236 62.746 61.494 63.0242 61.0766 63.2097C60.5201 63.488 60.1491 63.7662 60.1491 64.3691C60.1491 65.2039 60.752 65.6213 61.3085 65.6213C61.6795 65.6213 62.1432 65.4821 62.5142 65.1111C62.4679 64.3227 62.5142 63.4416 62.5142 62.5605Z" fill="#FFFFF8"/>
<path d="M69.5165 66.3167V66.0848C70.444 65.9457 70.5832 65.8065 70.5832 64.6935V62.0038C70.5832 60.6589 70.1658 60.0096 69.1455 60.0096C68.589 60.0096 67.9398 60.2879 67.5224 60.7516V64.6935C67.5224 65.8065 67.6152 65.9457 68.5427 66.0848V66.3167H65.3428V66.0848C66.2239 65.9457 66.3166 65.8529 66.3166 64.6935V56.5779C66.3166 55.3721 66.1311 55.3257 65.2964 55.1866V55.0011C66.2239 54.9083 67.105 54.6765 67.5688 54.4446C67.5224 54.7228 67.5224 55.7431 67.5224 56.5315V60.3806C68.0325 59.8241 68.8673 59.2213 69.8412 59.2213C71.0006 59.2213 71.8353 59.9632 71.8353 61.8183V64.7863C71.8353 65.8529 71.9281 65.8993 72.7628 66.0848V66.3167H69.5165Z" fill="#FFFFF8"/>
<path d="M73.5049 66.3167V66.0849C74.4788 65.9457 74.5715 65.853 74.5715 64.6472V61.3546C74.5715 60.2879 74.5251 60.1952 73.6904 60.0097V59.8242C74.386 59.6851 75.1744 59.4996 75.8237 59.1749C75.8237 59.4996 75.7773 60.4734 75.7773 61.2154V64.6472C75.7773 65.853 75.87 65.9457 76.8439 66.0849V66.3167H73.5049ZM75.0816 57.2272C74.7106 57.2272 74.3396 56.9025 74.3396 56.4852C74.3396 56.0214 74.7106 55.6968 75.0816 55.6968C75.499 55.6968 75.8237 56.0214 75.8237 56.4852C75.87 56.8562 75.499 57.2272 75.0816 57.2272Z" fill="#FFFFF8"/>
<path d="M80.4148 66.3168C80.1829 66.4095 79.9974 66.5023 79.9046 66.5023C78.9307 66.5023 78.3742 65.853 78.3742 64.6009V59.8706H77.3076L77.2612 59.7779L77.4931 59.4069H78.3742V57.8765C78.6989 57.5982 79.1626 57.2272 79.4872 56.9026H79.6264C79.6264 57.2272 79.58 58.1547 79.58 59.4069H81.2959C81.3423 59.4996 81.2959 59.7315 81.2031 59.8706H79.58V64.1835C79.58 65.5284 80.0437 65.7603 80.5539 65.7603C80.9249 65.7603 81.2495 65.6211 81.435 65.5284L81.4814 65.7603L80.4148 66.3168Z" fill="#FFFFF8"/>
<path d="M86.0727 66.3167V66.0848C87.0002 65.9457 87.1393 65.8065 87.1393 64.6935V62.0038C87.1393 60.6589 86.722 60.0096 85.7017 60.0096C85.1452 60.0096 84.4959 60.2879 84.0786 60.7516V64.6935C84.0786 65.8065 84.1713 65.9457 85.0988 66.0848V66.3167H81.8989V66.0848C82.78 65.9457 82.8728 65.8529 82.8728 64.6935V56.5779C82.8728 55.3721 82.6873 55.3257 81.8525 55.1866V55.0011C82.78 54.9083 83.6612 54.6765 84.1249 54.4446C84.0786 54.7228 84.0786 55.7431 84.0786 56.5315V60.3806C84.5887 59.8241 85.4234 59.2213 86.3973 59.2213C87.5567 59.2213 88.3915 59.9632 88.3915 61.8183V64.7863C88.3915 65.8529 88.4842 65.8993 89.319 66.0848V66.3167H86.0727Z" fill="#FFFFF8"/>
<path d="M90.061 66.3167V66.0849C91.0349 65.9457 91.1277 65.853 91.1277 64.6472V61.3546C91.1277 60.2879 91.0813 60.1952 90.2465 60.0097V59.8242C90.9422 59.6851 91.7305 59.4996 92.3798 59.1749C92.3798 59.4996 92.3334 60.4734 92.3334 61.2154V64.6472C92.3334 65.853 92.4262 65.9457 93.4001 66.0849V66.3167H90.061ZM91.6378 57.2272C91.2668 57.2272 90.8958 56.9025 90.8958 56.4852C90.8958 56.0214 91.2668 55.6968 91.6378 55.6968C92.0552 55.6968 92.3798 56.0214 92.3798 56.4852C92.4262 56.8562 92.0552 57.2272 91.6378 57.2272Z" fill="#FFFFF8"/>
</svg>
