<?xml version="1.0" encoding="utf-8"?>
<!-- Generator: Adobe Illustrator 24.3.0, SVG Export Plug-In . SVG Version: 6.00 Build 0)  -->
<svg version="1.1" id="Layer_1" xmlns="http://www.w3.org/2000/svg" xmlns:xlink="http://www.w3.org/1999/xlink" x="0px" y="0px"
	 viewBox="0 0 595.3 841.9" style="enable-background:new 0 0 595.3 841.9;" xml:space="preserve">
<style type="text/css">
	.st0{fill:#EDCB43;}
	.st1{fill:#FF0666;}
	.st2{fill:#FFFFF8;}
	.st3{fill:#4F4F4E;}
</style>
<rect x="35.3" y="254.8" width="259.6" height="335.4"/>
<g>
	<g>
		<circle class="st0" cx="193.9" cy="352" r="13.7"/>
		<circle class="st1" cx="138.4" cy="347.7" r="13.7"/>
		<path class="st1" d="M188.6,430.4c0,0-48.7-7.1-48.1-52.1c0-1.6-0.2-3.2-0.7-4.8c-1.3-4-4.8-10.3-13.6-9.3
			c-12.7,1.5-14.3,20.3-12,31.6C116.5,407.1,140.4,457.3,188.6,430.4z"/>
		<path class="st0" d="M140.9,432.3c0,0,48.9-6,48.9-49c0-2.7,0.6-5.4,2-7.7c1.9-3.4,5.6-6.8,12.4-5.9c12.8,1.5,14.2,19.7,11.8,30.5
			C213.6,411,187.6,458.3,140.9,432.3z"/>
	</g>
	<g>
		<g>
			<g>
				<path class="st2" d="M76,458.7c-0.7-2.6-1.8-4.5-5-4.5c-2.6,0-3.8,1.9-3.8,4c0,2.6,1.5,3.7,4.3,5.4c2.8,1.6,5.8,3.4,5.8,7.2
					c0,3.8-3.2,6.7-7.4,6.7c-1.9,0-3.9-0.6-5.1-1c-0.2-0.9-0.7-4.2-0.8-4.9l0.5-0.1c0.6,2.3,2.3,5.2,5.9,5.2c2.9,0,4.2-2.2,4.2-4.6
					c0-2.6-1.7-4.2-4.2-5.7c-2.8-1.7-5.6-3.4-5.6-7c0-3.4,2.8-6,6.9-6c2.2,0,3.6,0.4,4.3,0.5c0.1,1.3,0.3,3,0.6,4.6L76,458.7z"/>
				<path class="st2" d="M90.2,477.4c-0.6,0-1.1-0.2-1.7-0.7c-0.4-0.4-0.6-0.8-0.8-1.6c-1.3,0.9-3.1,2.3-3.9,2.3c-2.4,0-4-2-4-4
					c0-1.6,0.8-2.5,2.5-3.1c1.9-0.7,4.4-1.4,5.4-2.1V467c0-2.5-1.3-4-3-4c-0.6,0-1.2,0.2-1.5,0.7c-0.4,0.4-0.7,1.3-0.9,2.3
					c-0.1,0.5-0.5,0.6-0.7,0.6c-0.6,0-1.3-0.6-1.3-1.3c0-0.3,0.3-0.6,0.9-1.1c1.1-0.8,3.5-2.1,4.9-2.4c1,0,2,0.3,2.7,0.9
					c1.2,1.1,1.6,2.3,1.6,4.4v6.3c0,1.7,0.6,2.2,1.2,2.2c0.4,0,0.7-0.1,1-0.3l0.2,0.5L90.2,477.4z M87.7,468.9
					c-0.6,0.4-2.2,1-3.1,1.4c-1.2,0.6-2,1.2-2,2.5c0,1.8,1.3,2.7,2.5,2.7c0.8,0,1.8-0.3,2.6-1.1C87.7,472.7,87.7,470.8,87.7,468.9z"
					/>
				<path class="st2" d="M103.3,477v-0.5c2.1-0.3,2.2-0.5,2.2-3.3v-5.6c0-2.2-0.8-4.1-3-4.1c-1.4,0-2.7,0.7-3.6,1.6v8.3
					c0,2.6,0.2,2.7,2.2,3.1v0.5h-7.1v-0.5c2.2-0.3,2.3-0.6,2.3-3.1v-7.2c0-2.1-0.1-2.3-1.8-2.8V463c1.5-0.2,3.1-0.8,4.5-1.5
					c0,0.7-0.1,1.6-0.1,2.8c0.7-0.5,1.5-1.1,2.4-1.7c1-0.6,1.7-1,2.7-1c2.7,0,4.3,2.1,4.3,5.3v6.5c0,2.5,0.2,2.7,2,3v0.5H103.3z"/>
				<path class="st2" d="M116.5,472.5c-1,0.8-1.1,1.4-1.1,1.8c0,0.8,0.7,1.5,2,1.5c1.1,0,2.5,0,3.7,0c2.8,0,5.1,1.2,5.1,4.3
					c0,3.5-3.9,6.9-8.3,6.9c-4.1,0-6.1-2.4-6.1-4.4c0-0.7,0.2-1.4,0.7-1.8c0.6-0.6,2-1.8,3.1-2.6c-1.3-0.4-2.2-1.1-2.6-1.9
					c-0.3-0.5-0.4-1.1-0.4-1.4c0.9-0.5,2.6-1.7,3.3-2.5L116.5,472.5z M118.3,472.9c-3.5,0-5.8-2.5-5.8-5.3c0-3.7,3.1-5.9,6-5.9
					c1.1,0,2.3,0.4,3.3,0.9c1.2,0,3.4-0.4,4.3-0.8l0.2,0.2c-0.3,0.6-0.8,1.4-1.2,1.8c-0.6,0-1.6,0-2.2,0c0.7,0.7,1.2,2.1,1.2,3.3
					C124.2,471,120.9,472.9,118.3,472.9z M119.2,478.2c-2.1,0-2.6,0.1-2.9,0.3c-1.5,1-2.1,2-2.1,3.3c0,2.1,2.3,3.9,5.2,3.9
					c4,0,4.8-2.1,4.8-4.1c0-1.4-0.7-2.4-1.9-2.9C121.5,478.2,120.5,478.2,119.2,478.2z M118.1,462.4c-1.6,0-2.8,1.5-2.8,4.5
					c0,3.1,1.3,5.4,3.4,5.3c1.7-0.1,2.7-1.4,2.7-4.5C121.4,464.7,120.1,462.4,118.1,462.4z"/>
				<path class="st2" d="M137.7,477.4c-0.6,0-1.1-0.2-1.7-0.7c-0.4-0.4-0.6-0.8-0.8-1.6c-1.3,0.9-3.1,2.3-3.9,2.3c-2.4,0-4-2-4-4
					c0-1.6,0.8-2.5,2.5-3.1c1.9-0.7,4.4-1.4,5.4-2.1V467c0-2.5-1.3-4-3-4c-0.6,0-1.2,0.2-1.5,0.7c-0.4,0.4-0.7,1.3-0.9,2.3
					c-0.1,0.5-0.5,0.6-0.7,0.6c-0.6,0-1.3-0.6-1.3-1.3c0-0.3,0.3-0.6,0.9-1.1c1.1-0.8,3.5-2.1,4.9-2.4c1,0,2,0.3,2.7,0.9
					c1.2,1.1,1.6,2.3,1.6,4.4v6.3c0,1.7,0.6,2.2,1.2,2.2c0.4,0,0.7-0.1,1-0.3l0.2,0.5L137.7,477.4z M135.3,468.9
					c-0.6,0.4-2.2,1-3.1,1.4c-1.2,0.6-2,1.2-2,2.5c0,1.8,1.3,2.7,2.5,2.7c0.8,0,1.8-0.3,2.6-1.1
					C135.2,472.7,135.3,470.8,135.3,468.9z"/>
				<path class="st2" d="M159.5,477v-0.5c2.2-0.3,2.2-0.6,2.2-3.4v-5.6c0-2.3-0.7-4-2.9-4c-1.2,0-2.3,0.5-3.5,1.6
					c0.1,0.4,0.1,0.8,0.1,1.6v6.9c0,2.4,0.2,2.6,2.1,2.9v0.5h-6.8v-0.5c2-0.3,2.1-0.6,2.1-2.9v-6.1c0-2.6-0.8-4-3-4
					c-1.2,0-2.4,0.7-3.4,1.6v8.4c0,2.4,0.1,2.7,2.2,3v0.5h-7v-0.5c2.2-0.3,2.3-0.6,2.3-3.1v-7.2c0-2.3-0.2-2.4-1.8-2.9V463
					c1.6-0.3,2.9-0.7,4.5-1.5c-0.1,1.1-0.1,2.2-0.1,2.8c0.7-0.5,1.4-1,2.2-1.6c1.1-0.7,1.9-1,2.8-1c1.6,0,2.9,0.8,3.6,2.8
					c0.9-0.7,1.9-1.5,2.8-2c0.9-0.5,1.5-0.8,2.4-0.8c2.5,0,4,2,4,5.2v6.5c0,2.7,0.2,2.8,2,3.1v0.5H159.5z"/>
				<path class="st2" d="M187,458.7c-0.7-2.6-1.8-4.5-5-4.5c-2.6,0-3.8,1.9-3.8,4c0,2.6,1.5,3.7,4.3,5.4c2.8,1.6,5.8,3.4,5.8,7.2
					c0,3.8-3.2,6.7-7.4,6.7c-1.9,0-3.9-0.6-5.1-1c-0.2-0.9-0.7-4.2-0.8-4.9l0.5-0.1c0.6,2.3,2.3,5.2,5.9,5.2c2.9,0,4.2-2.2,4.2-4.6
					c0-2.6-1.7-4.2-4.2-5.7c-2.8-1.7-5.6-3.4-5.6-7c0-3.4,2.8-6,6.9-6c2.2,0,3.6,0.4,4.3,0.5c0.1,1.3,0.3,3,0.6,4.6L187,458.7z"/>
				<path class="st2" d="M201.2,477.4c-0.6,0-1.1-0.2-1.7-0.7c-0.4-0.4-0.6-0.8-0.8-1.6c-1.3,0.9-3.1,2.3-3.9,2.3c-2.4,0-4-2-4-4
					c0-1.6,0.8-2.5,2.5-3.1c1.9-0.7,4.4-1.4,5.4-2.1V467c0-2.5-1.3-4-3-4c-0.6,0-1.2,0.2-1.5,0.7c-0.4,0.4-0.7,1.3-0.9,2.3
					c-0.1,0.5-0.5,0.6-0.7,0.6c-0.6,0-1.3-0.6-1.3-1.3c0-0.3,0.3-0.6,0.9-1.1c1.1-0.8,3.5-2.1,4.9-2.4c1,0,2,0.3,2.7,0.9
					c1.2,1.1,1.6,2.3,1.6,4.4v6.3c0,1.7,0.6,2.2,1.2,2.2c0.4,0,0.7-0.1,1-0.3l0.2,0.5L201.2,477.4z M198.8,468.9
					c-0.6,0.4-2.2,1-3.1,1.4c-1.2,0.6-2,1.2-2,2.5c0,1.8,1.3,2.7,2.5,2.7c0.8,0,1.8-0.3,2.6-1.1
					C198.7,472.7,198.8,470.8,198.8,468.9z"/>
				<path class="st2" d="M213.9,477v-0.5c2-0.3,2.3-0.6,2.3-3v-5.8c0-2.9-0.9-4.3-3.1-4.3c-1.2,0-2.6,0.6-3.5,1.6v8.5
					c0,2.4,0.2,2.7,2.2,3v0.5h-6.9v-0.5c1.9-0.3,2.1-0.5,2.1-3V456c0-2.6-0.4-2.7-2.2-3v-0.4c2-0.2,3.9-0.7,4.9-1.2
					c-0.1,0.6-0.1,2.8-0.1,4.5v8.3c1.1-1.2,2.9-2.5,5-2.5c2.5,0,4.3,1.6,4.3,5.6v6.4c0,2.3,0.2,2.4,2,2.8v0.5H213.9z"/>
				<path class="st2" d="M222.5,477v-0.5c2.1-0.3,2.3-0.5,2.3-3.1v-7.1c0-2.3-0.1-2.5-1.9-2.9V463c1.5-0.3,3.2-0.7,4.6-1.4
					c0,0.7-0.1,2.8-0.1,4.4v7.4c0,2.6,0.2,2.8,2.3,3.1v0.5H222.5z M225.9,457.4c-0.8,0-1.6-0.7-1.6-1.6c0-1,0.8-1.7,1.6-1.7
					c0.9,0,1.6,0.7,1.6,1.7C227.6,456.6,226.8,457.4,225.9,457.4z"/>
				<path class="st2" d="M237.4,477c-0.5,0.2-0.9,0.4-1.1,0.4c-2.1,0-3.3-1.4-3.3-4.1v-10.2h-2.3l-0.1-0.2l0.5-0.8h1.9v-3.3
					c0.7-0.6,1.7-1.4,2.4-2.1l0.3,0c0,0.7-0.1,2.7-0.1,5.4h3.7c0.1,0.2,0,0.7-0.2,1h-3.5v9.3c0,2.9,1,3.4,2.1,3.4
					c0.8,0,1.5-0.3,1.9-0.5l0.1,0.5L237.4,477z"/>
				<path class="st2" d="M249.6,477v-0.5c2-0.3,2.3-0.6,2.3-3v-5.8c0-2.9-0.9-4.3-3.1-4.3c-1.2,0-2.6,0.6-3.5,1.6v8.5
					c0,2.4,0.2,2.7,2.2,3v0.5h-6.9v-0.5c1.9-0.3,2.1-0.5,2.1-3V456c0-2.6-0.4-2.7-2.2-3v-0.4c2-0.2,3.9-0.7,4.9-1.2
					c-0.1,0.6-0.1,2.8-0.1,4.5v8.3c1.1-1.2,2.9-2.5,5-2.5c2.5,0,4.3,1.6,4.3,5.6v6.4c0,2.3,0.2,2.4,2,2.8v0.5H249.6z"/>
				<path class="st2" d="M258.2,477v-0.5c2.1-0.3,2.3-0.5,2.3-3.1v-7.1c0-2.3-0.1-2.5-1.9-2.9V463c1.5-0.3,3.2-0.7,4.6-1.4
					c0,0.7-0.1,2.8-0.1,4.4v7.4c0,2.6,0.2,2.8,2.3,3.1v0.5H258.2z M261.6,457.4c-0.8,0-1.6-0.7-1.6-1.6c0-1,0.8-1.7,1.6-1.7
					c0.9,0,1.6,0.7,1.6,1.7C263.3,456.6,262.5,457.4,261.6,457.4z"/>
			</g>
		</g>
	</g>
</g>
<g>
	<g>
		<circle class="st0" cx="469.2" cy="335.3" r="13.7"/>
		<circle class="st1" cx="413.7" cy="331" r="13.7"/>
		<path class="st1" d="M464,413.7c0,0-48.7-7.1-48.1-52.1c0-1.6-0.2-3.2-0.7-4.8c-1.3-4-4.8-10.3-13.6-9.3
			c-12.7,1.5-14.3,20.3-12,31.6C391.8,390.4,415.8,440.6,464,413.7z"/>
		<path class="st0" d="M416.2,415.6c0,0,48.9-6,48.9-49c0-2.7,0.6-5.4,2-7.7c1.9-3.4,5.6-6.8,12.4-5.9c12.8,1.5,14.2,19.7,11.8,30.5
			C489,394.3,463,441.6,416.2,415.6z"/>
	</g>
	<g>
		<g>
			<g>
				<path class="st3" d="M351.3,442c-0.7-2.6-1.8-4.5-5-4.5c-2.6,0-3.8,1.9-3.8,4c0,2.6,1.5,3.7,4.3,5.4c2.8,1.6,5.8,3.4,5.8,7.2
					c0,3.8-3.2,6.7-7.4,6.7c-1.9,0-3.9-0.6-5.1-1c-0.2-0.9-0.7-4.2-0.8-4.9l0.5-0.1c0.6,2.3,2.3,5.2,5.9,5.2c2.9,0,4.2-2.2,4.2-4.6
					c0-2.6-1.7-4.2-4.2-5.7c-2.8-1.7-5.6-3.4-5.6-7c0-3.4,2.8-6,6.9-6c2.2,0,3.6,0.4,4.3,0.5c0.1,1.3,0.3,3,0.6,4.6L351.3,442z"/>
				<path class="st3" d="M365.5,460.7c-0.6,0-1.1-0.2-1.7-0.7c-0.4-0.4-0.6-0.8-0.8-1.6c-1.3,0.9-3.1,2.3-3.9,2.3c-2.4,0-4-2-4-4
					c0-1.6,0.8-2.5,2.5-3.1c1.9-0.7,4.4-1.4,5.4-2.1v-1.2c0-2.5-1.3-4-3-4c-0.6,0-1.2,0.2-1.5,0.7c-0.4,0.4-0.7,1.3-0.9,2.3
					c-0.1,0.5-0.5,0.6-0.7,0.6c-0.6,0-1.3-0.6-1.3-1.3c0-0.3,0.3-0.6,0.9-1.1c1.1-0.8,3.5-2.1,4.9-2.4c1,0,2,0.3,2.7,0.9
					c1.2,1.1,1.6,2.3,1.6,4.4v6.3c0,1.7,0.6,2.2,1.2,2.2c0.4,0,0.7-0.1,1-0.3l0.2,0.5L365.5,460.7z M363.1,452.2
					c-0.6,0.4-2.2,1-3.1,1.4c-1.2,0.6-2,1.2-2,2.5c0,1.8,1.3,2.7,2.5,2.7c0.8,0,1.8-0.3,2.6-1.1C363,456,363.1,454.1,363.1,452.2z"
					/>
				<path class="st3" d="M378.6,460.3v-0.5c2.1-0.3,2.2-0.5,2.2-3.3v-5.6c0-2.2-0.8-4.1-3-4.1c-1.4,0-2.7,0.7-3.6,1.6v8.3
					c0,2.6,0.2,2.7,2.2,3.1v0.5h-7.1v-0.5c2.2-0.3,2.3-0.6,2.3-3.1v-7.2c0-2.1-0.1-2.3-1.8-2.8v-0.4c1.5-0.2,3.1-0.8,4.5-1.5
					c0,0.7-0.1,1.6-0.1,2.8c0.7-0.5,1.5-1.1,2.4-1.7c1-0.6,1.7-1,2.7-1c2.7,0,4.3,2.1,4.3,5.3v6.5c0,2.5,0.2,2.7,2,3v0.5H378.6z"/>
				<path class="st3" d="M391.8,455.8c-1,0.8-1.1,1.4-1.1,1.8c0,0.8,0.7,1.5,2,1.5c1.1,0,2.5,0,3.7,0c2.8,0,5.1,1.2,5.1,4.3
					c0,3.5-3.9,6.9-8.3,6.9c-4.1,0-6.1-2.4-6.1-4.4c0-0.7,0.2-1.4,0.7-1.8c0.6-0.6,2-1.8,3.1-2.6c-1.3-0.4-2.2-1.1-2.6-1.9
					c-0.3-0.5-0.4-1.1-0.4-1.4c0.9-0.5,2.6-1.7,3.3-2.5L391.8,455.8z M393.6,456.2c-3.5,0-5.8-2.5-5.8-5.3c0-3.7,3.1-5.9,6-5.9
					c1.1,0,2.3,0.4,3.3,0.9c1.2,0,3.4-0.4,4.3-0.8l0.2,0.2c-0.3,0.6-0.8,1.4-1.2,1.8c-0.6,0-1.6,0-2.2,0c0.7,0.7,1.2,2.1,1.2,3.3
					C399.5,454.3,396.2,456.2,393.6,456.2z M394.5,461.4c-2.1,0-2.6,0.1-2.9,0.3c-1.5,1-2.1,2-2.1,3.3c0,2.1,2.3,3.9,5.2,3.9
					c4,0,4.8-2.1,4.8-4.1c0-1.4-0.7-2.4-1.9-2.9C396.8,461.5,395.9,461.4,394.5,461.4z M393.5,445.7c-1.6,0-2.8,1.5-2.8,4.5
					c0,3.1,1.3,5.4,3.4,5.3c1.7-0.1,2.7-1.4,2.7-4.5C396.8,448,395.5,445.7,393.5,445.7z"/>
				<path class="st3" d="M413,460.7c-0.6,0-1.1-0.2-1.7-0.7c-0.4-0.4-0.6-0.8-0.8-1.6c-1.3,0.9-3.1,2.3-3.9,2.3c-2.4,0-4-2-4-4
					c0-1.6,0.8-2.5,2.5-3.1c1.9-0.7,4.4-1.4,5.4-2.1v-1.2c0-2.5-1.3-4-3-4c-0.6,0-1.2,0.2-1.5,0.7c-0.4,0.4-0.7,1.3-0.9,2.3
					c-0.1,0.5-0.5,0.6-0.7,0.6c-0.6,0-1.3-0.6-1.3-1.3c0-0.3,0.3-0.6,0.9-1.1c1.1-0.8,3.5-2.1,4.9-2.4c1,0,2,0.3,2.7,0.9
					c1.2,1.1,1.6,2.3,1.6,4.4v6.3c0,1.7,0.6,2.2,1.2,2.2c0.4,0,0.7-0.1,1-0.3l0.2,0.5L413,460.7z M410.6,452.2
					c-0.6,0.4-2.2,1-3.1,1.4c-1.2,0.6-2,1.2-2,2.5c0,1.8,1.3,2.7,2.5,2.7c0.8,0,1.8-0.3,2.6-1.1C410.5,456,410.6,454.1,410.6,452.2z
					"/>
				<path class="st3" d="M434.8,460.3v-0.5c2.2-0.3,2.2-0.6,2.2-3.4v-5.6c0-2.3-0.7-4-2.9-4c-1.2,0-2.3,0.5-3.5,1.6
					c0.1,0.4,0.1,0.8,0.1,1.6v6.9c0,2.4,0.2,2.6,2.1,2.9v0.5h-6.8v-0.5c2-0.3,2.1-0.6,2.1-2.9v-6.1c0-2.6-0.8-4-3-4
					c-1.2,0-2.4,0.7-3.4,1.6v8.4c0,2.4,0.1,2.7,2.2,3v0.5h-7v-0.5c2.2-0.3,2.3-0.6,2.3-3.1v-7.2c0-2.3-0.2-2.4-1.8-2.9v-0.4
					c1.6-0.3,2.9-0.7,4.5-1.5c-0.1,1.1-0.1,2.2-0.1,2.8c0.7-0.5,1.4-1,2.2-1.6c1.1-0.7,1.9-1,2.8-1c1.6,0,2.9,0.8,3.6,2.8
					c0.9-0.7,1.9-1.5,2.8-2c0.9-0.5,1.5-0.8,2.4-0.8c2.5,0,4,2,4,5.2v6.5c0,2.7,0.2,2.8,2,3.1v0.5H434.8z"/>
				<path class="st3" d="M462.3,442c-0.7-2.6-1.8-4.5-5-4.5c-2.6,0-3.8,1.9-3.8,4c0,2.6,1.5,3.7,4.3,5.4c2.8,1.6,5.8,3.4,5.8,7.2
					c0,3.8-3.2,6.7-7.4,6.7c-1.9,0-3.9-0.6-5.1-1c-0.2-0.9-0.7-4.2-0.8-4.9l0.5-0.1c0.6,2.3,2.3,5.2,5.9,5.2c2.9,0,4.2-2.2,4.2-4.6
					c0-2.6-1.7-4.2-4.2-5.7c-2.8-1.7-5.6-3.4-5.6-7c0-3.4,2.8-6,6.9-6c2.2,0,3.6,0.4,4.3,0.5c0.1,1.3,0.3,3,0.6,4.6L462.3,442z"/>
				<path class="st3" d="M476.5,460.7c-0.6,0-1.1-0.2-1.7-0.7c-0.4-0.4-0.6-0.8-0.8-1.6c-1.3,0.9-3.1,2.3-3.9,2.3c-2.4,0-4-2-4-4
					c0-1.6,0.8-2.5,2.5-3.1c1.9-0.7,4.4-1.4,5.4-2.1v-1.2c0-2.5-1.3-4-3-4c-0.6,0-1.2,0.2-1.5,0.7c-0.4,0.4-0.7,1.3-0.9,2.3
					c-0.1,0.5-0.5,0.6-0.7,0.6c-0.6,0-1.3-0.6-1.3-1.3c0-0.3,0.3-0.6,0.9-1.1c1.1-0.8,3.5-2.1,4.9-2.4c1,0,2,0.3,2.7,0.9
					c1.2,1.1,1.6,2.3,1.6,4.4v6.3c0,1.7,0.6,2.2,1.2,2.2c0.4,0,0.7-0.1,1-0.3l0.2,0.5L476.5,460.7z M474.1,452.2
					c-0.6,0.4-2.2,1-3.1,1.4c-1.2,0.6-2,1.2-2,2.5c0,1.8,1.3,2.7,2.5,2.7c0.8,0,1.8-0.3,2.6-1.1C474,456,474.1,454.1,474.1,452.2z"
					/>
				<path class="st3" d="M489.3,460.3v-0.5c2-0.3,2.3-0.6,2.3-3V451c0-2.9-0.9-4.3-3.1-4.3c-1.2,0-2.6,0.6-3.5,1.6v8.5
					c0,2.4,0.2,2.7,2.2,3v0.5h-6.9v-0.5c1.9-0.3,2.1-0.5,2.1-3v-17.5c0-2.6-0.4-2.7-2.2-3v-0.4c2-0.2,3.9-0.7,4.9-1.2
					c-0.1,0.6-0.1,2.8-0.1,4.5v8.3c1.1-1.2,2.9-2.5,5-2.5c2.5,0,4.3,1.6,4.3,5.6v6.4c0,2.3,0.2,2.4,2,2.8v0.5H489.3z"/>
				<path class="st3" d="M497.9,460.3v-0.5c2.1-0.3,2.3-0.5,2.3-3.1v-7.1c0-2.3-0.1-2.5-1.9-2.9v-0.4c1.5-0.3,3.2-0.7,4.6-1.4
					c0,0.7-0.1,2.8-0.1,4.4v7.4c0,2.6,0.2,2.8,2.3,3.1v0.5H497.9z M501.3,440.7c-0.8,0-1.6-0.7-1.6-1.6c0-1,0.8-1.7,1.6-1.7
					c0.9,0,1.6,0.7,1.6,1.7C502.9,439.9,502.2,440.7,501.3,440.7z"/>
				<path class="st3" d="M512.7,460.3c-0.5,0.2-0.9,0.4-1.1,0.4c-2.1,0-3.3-1.4-3.3-4.1v-10.2H506l-0.1-0.2l0.5-0.8h1.9v-3.3
					c0.7-0.6,1.7-1.4,2.4-2.1l0.3,0c0,0.7-0.1,2.7-0.1,5.4h3.7c0.1,0.2,0,0.7-0.2,1h-3.5v9.3c0,2.9,1,3.4,2.1,3.4
					c0.8,0,1.5-0.3,1.9-0.5l0.1,0.5L512.7,460.3z"/>
				<path class="st3" d="M525,460.3v-0.5c2-0.3,2.3-0.6,2.3-3V451c0-2.9-0.9-4.3-3.1-4.3c-1.2,0-2.6,0.6-3.5,1.6v8.5
					c0,2.4,0.2,2.7,2.2,3v0.5h-6.9v-0.5c1.9-0.3,2.1-0.5,2.1-3v-17.5c0-2.6-0.4-2.7-2.2-3v-0.4c2-0.2,3.9-0.7,4.9-1.2
					c-0.1,0.6-0.1,2.8-0.1,4.5v8.3c1.1-1.2,2.9-2.5,5-2.5c2.5,0,4.3,1.6,4.3,5.6v6.4c0,2.3,0.2,2.4,2,2.8v0.5H525z"/>
				<path class="st3" d="M533.6,460.3v-0.5c2.1-0.3,2.3-0.5,2.3-3.1v-7.1c0-2.3-0.1-2.5-1.9-2.9v-0.4c1.5-0.3,3.2-0.7,4.6-1.4
					c0,0.7-0.1,2.8-0.1,4.4v7.4c0,2.6,0.2,2.8,2.3,3.1v0.5H533.6z M537,440.7c-0.8,0-1.6-0.7-1.6-1.6c0-1,0.8-1.7,1.6-1.7
					c0.9,0,1.6,0.7,1.6,1.7C538.6,439.9,537.9,440.7,537,440.7z"/>
			</g>
		</g>
	</g>
</g>
</svg>
